<svg width="120" height="40" viewBox="0 0 120 40" fill="none" xmlns="http://www.w3.org/2000/svg">
<path fill-rule="evenodd" clip-rule="evenodd" d="M59.9861 23.911C59.9861 25.105 59.1625 25.934 57.8113 25.934H52.9614C52.4905 25.934 52.1088 25.5498 52.1088 25.0763V22.6792C52.1088 22.2054 52.4905 21.8213 52.9614 21.8213H57.8113C59.1952 21.8213 59.9861 22.7834 59.9861 23.911ZM59.5579 15.1881C59.5579 16.2829 58.7669 17.1122 57.6131 17.1122H52.9614C52.4905 17.1122 52.1088 16.7283 52.1088 16.2545V14.1555C52.1088 13.6819 52.4905 13.2978 52.9614 13.2978H57.6131C58.7669 13.2978 59.5579 14.0939 59.5579 15.1881ZM47.2921 8.55469C46.8212 8.55469 46.4395 8.93883 46.4395 9.41238V29.8194C46.4395 30.2929 46.8212 30.6771 47.2921 30.6771H59.2943C63.6124 30.6771 65.7545 27.8912 65.7545 24.674C65.7545 22.6235 64.7546 20.8605 63.2935 19.927C62.7775 19.5972 62.7844 18.8565 63.281 18.498C64.4958 17.6208 65.3263 16.1283 65.3263 14.1936C65.3263 11.4075 63.2495 8.55469 58.8987 8.55469H47.2921ZM77.9015 20.7276H73.7365C73.0724 20.7276 72.6541 19.9922 73.0048 19.4248C73.4899 18.6404 74.3528 17.9746 75.7807 17.9746C77.2817 17.9746 78.159 18.6429 78.6299 19.4198C78.977 19.9928 78.5681 20.7276 77.9015 20.7276ZM83.9224 22.9495C83.9224 17.5102 80.4944 14.0273 75.7807 14.0273C70.804 14.0273 67.3101 17.7754 67.3101 22.4188C67.3101 27.6263 71.1008 30.8431 76.0118 30.8431C78.126 30.8431 80.3889 30.32 81.9846 29.2517C82.3805 28.9868 82.4868 28.4483 82.2202 28.0522L81.0101 26.2543C80.7565 25.8772 80.2579 25.7816 79.8682 26.0131C78.9671 26.5482 77.7518 26.8961 76.6383 26.8961C75.0349 26.8961 73.8827 26.2755 73.2125 25.4125C72.7814 24.8579 73.1995 24.0442 73.8993 24.0442H83.0698C83.5407 24.0442 83.9224 23.6604 83.9224 23.1865V22.9495ZM84.7555 14.7737H88.2426C88.603 14.7737 88.9247 15.0018 89.0457 15.3436L91.6374 22.6648C91.9059 23.4236 92.9717 23.425 93.2425 22.6671L95.8591 15.3414C95.9809 15.0007 96.3018 14.7737 96.6614 14.7737H100.183C100.784 14.7737 101.197 15.3826 100.977 15.9456L95.3849 30.2495C95.2565 30.5777 94.942 30.7933 94.5915 30.7933H90.3473C89.9971 30.7933 89.6824 30.5777 89.5542 30.2495L83.9621 15.9456C83.7423 15.3826 84.1545 14.7737 84.7555 14.7737ZM108.18 31.7696C107.916 32.4331 107.19 32.6654 106.037 32.6654C105.905 32.6654 105.762 32.6543 105.617 32.6323C105.149 32.561 104.706 32.8593 104.631 33.3298L104.19 36.089C104.114 36.5653 104.443 37.0141 104.919 37.0754C105.419 37.14 105.958 37.1762 106.235 37.1762C109.267 37.1096 111.673 36.3472 112.959 32.9638L119.684 15.8288C119.905 15.2658 119.493 14.6558 118.891 14.6558H115.371C115.012 14.6558 114.691 14.8828 114.569 15.2235L111.952 22.5494C111.681 23.3074 110.615 23.3057 110.346 22.5469L107.755 15.2257C107.634 14.8839 107.312 14.6558 106.952 14.6558H103.463C102.862 14.6558 102.45 15.2639 102.669 15.8266L108.312 30.3163C108.459 30.6957 108.454 31.1177 108.296 31.493L108.18 31.7696Z" fill="white"/>
<path d="M21.2188 30.8662H12.0722C11.5592 30.8662 11.1432 30.4476 11.1432 29.9314V22.752C11.1432 22.3672 11.3775 22.0217 11.7337 21.8814L15.51 20.3943C16.0985 20.1628 16.0985 19.3249 15.51 19.0932L11.7337 17.6063C11.3775 17.4661 11.1432 17.1206 11.1432 16.7358V9.55636C11.1432 9.03993 11.5592 8.62155 12.0722 8.62155H20.9869C24.8316 8.62155 27.1847 10.9558 27.1847 14.2911C27.1847 16.4269 26.1058 18.0198 24.6972 18.8484C24.2971 19.0837 24.3107 19.6572 24.7184 19.879C26.3935 20.79 27.6155 22.7536 27.6155 24.8631C27.6155 28.4317 25.2626 30.8662 21.2188 30.8662ZM19.3793 0.310303C8.71298 0.310303 0.0664062 9.01085 0.0664062 19.7438C0.0664062 30.4767 8.71298 39.1775 19.3793 39.1775C30.0457 39.1775 38.6925 30.4767 38.6925 19.7438C38.6925 9.01085 30.0457 0.310303 19.3793 0.310303Z" fill="white"/>
</svg>
