<svg data-v-423bf9ae="" xmlns="http://www.w3.org/2000/svg" viewBox="0 0 413.76188932867234 60" class="font"><!----><defs data-v-423bf9ae=""><linearGradient data-v-423bf9ae="" gradientTransform="rotate(25)" id="e237e814-7539-4afb-844b-c4e98bae0ac8" x1="0%" y1="0%" x2="100%" y2="0%"><stop data-v-423bf9ae="" offset="0%" style="stop-color: rgb(0, 118, 221); stop-opacity: 1;"></stop><stop data-v-423bf9ae="" offset="100%" style="stop-color: rgb(230, 0, 233); stop-opacity: 1;"></stop></linearGradient></defs><!----><g data-v-423bf9ae="" id="5f3239c3-e46b-41cf-846c-698552c70d13" fill="#ffffff" transform="matrix(4.761904617736313,0,0,4.761904617736313,-0.9523792489971186,-18.952380946253804)"><path d="M0.20 3.98L0.20 5.68L3.16 5.68L3.16 13.78L5.01 13.78L5.01 5.68L7.98 5.68L7.98 3.98ZM13.12 6.83L11.30 12.10L11.13 12.10L9.31 6.83L7.41 6.83L10.30 14.45L9.41 16.58L11.31 16.58L15.02 6.83ZM17.67 6.83L15.93 6.83L15.93 13.78L17.70 13.78L17.70 9.88C17.70 8.90 18.34 8.43 19.24 8.43L20.27 8.43L20.27 6.80L19.57 6.80C18.69 6.80 18.10 7.07 17.84 7.84L17.67 7.84ZM20.90 8.43L22.33 9.35C22.76 8.62 23.34 8.15 24.26 8.15C25.21 8.15 25.72 8.67 25.72 9.32L25.72 9.49L22.93 9.80C21.64 9.94 20.76 10.70 20.76 11.80C20.76 13.13 21.80 13.97 23.37 13.97C24.86 13.97 25.38 13.24 25.55 12.94L25.75 12.94L25.75 13.78L27.48 13.78L27.48 9.34C27.48 7.71 26.25 6.64 24.36 6.64C22.67 6.64 21.73 7.39 20.90 8.43ZM22.61 11.70C22.61 11.30 22.93 11.06 23.59 10.98L25.72 10.72L25.72 10.84C25.72 11.79 25.03 12.52 23.80 12.52C23.02 12.52 22.61 12.18 22.61 11.70ZM29.08 6.83L29.08 13.78L30.84 13.78L30.84 10.19C30.84 8.96 31.44 8.26 32.58 8.26C33.59 8.26 34.15 8.83 34.15 9.80L34.15 13.78L35.91 13.78L35.91 9.63C35.91 7.83 34.75 6.72 33.21 6.72C31.93 6.72 31.29 7.31 31.01 7.95L30.81 7.95L30.81 6.83ZM37.51 6.83L37.51 13.78L39.27 13.78L39.27 10.19C39.27 8.96 39.87 8.26 41.01 8.26C42.01 8.26 42.57 8.83 42.57 9.80L42.57 13.78L44.34 13.78L44.34 9.63C44.34 7.83 43.18 6.72 41.64 6.72C40.36 6.72 39.72 7.31 39.44 7.95L39.24 7.95L39.24 6.83ZM45.51 10.30C45.51 12.49 47.11 13.97 49.15 13.97C51.20 13.97 52.79 12.49 52.79 10.30C52.79 8.12 51.20 6.64 49.15 6.64C47.11 6.64 45.51 8.12 45.51 10.30ZM47.28 10.30C47.28 9.07 48.03 8.26 49.15 8.26C50.27 8.26 51.03 9.07 51.03 10.30C51.03 11.54 50.27 12.35 49.15 12.35C48.03 12.35 47.28 11.54 47.28 10.30ZM57.19 3.98L57.19 5.68L60.16 5.68L60.16 13.78L62.01 13.78L62.01 5.68L64.97 5.68L64.97 3.98ZM64.19 10.25C64.19 12.40 65.69 13.97 67.76 13.97C69.62 13.97 70.43 12.99 70.91 12.26L69.40 11.40C69.16 11.89 68.71 12.43 67.73 12.43C66.72 12.43 66.07 11.72 66.02 10.82L71.16 10.82L71.16 10.14C71.16 8.05 69.75 6.64 67.73 6.64C65.69 6.64 64.19 8.15 64.19 10.25ZM66.04 9.59C66.15 8.76 66.72 8.18 67.72 8.18C68.63 8.18 69.24 8.74 69.34 9.59ZM72.00 10.30C72.00 12.46 73.60 13.97 75.61 13.97C77.56 13.97 78.78 12.89 79.11 11.31L77.38 10.88C77.20 11.76 76.71 12.35 75.64 12.35C74.51 12.35 73.77 11.54 73.77 10.30C73.77 9.07 74.58 8.26 75.64 8.26C76.71 8.26 77.25 8.93 77.38 9.74L79.11 9.30C78.75 7.71 77.55 6.64 75.61 6.64C73.60 6.64 72.00 8.15 72.00 10.30ZM80.26 3.98L80.26 13.78L82.03 13.78L82.03 10.19C82.03 8.96 82.63 8.26 83.76 8.26C84.77 8.26 85.33 8.83 85.33 9.80L85.33 13.78L87.09 13.78L87.09 9.63C87.09 7.83 85.93 6.72 84.39 6.72C83.12 6.72 82.47 7.31 82.19 7.95L82.03 7.95L82.03 3.98Z"></path></g><!----><!----></svg>