<svg data-v-423bf9ae="" xmlns="http://www.w3.org/2000/svg" viewBox="0 0 399.27588686810094 60" class="font"><!----><!----><!----><g data-v-423bf9ae="" id="ec5bb737-7762-4710-a2ca-13eedf66f466" fill="white" transform="matrix(5.870841333886128,0,0,5.870841333886128,-4.050879592030384,-2.935421143780218)"><path d="M2.53 10.50L2.53 6.87L7.45 6.87L7.45 5.17L2.53 5.17L2.53 2.49L7.73 2.49L7.73 0.71L0.69 0.71L0.69 10.50ZM9.00 0.70L9.00 10.50L15.89 10.50L15.89 8.79L10.85 8.79L10.85 0.70ZM23.38 0.71L23.38 6.33C23.38 8.01 22.51 9.03 20.99 9.03C19.46 9.03 18.45 8.09 18.45 6.33L18.45 0.71L16.62 0.71L16.62 6.33C16.62 9.28 18.62 10.71 20.97 10.71C23.44 10.71 25.21 9.23 25.21 6.33L25.21 0.71ZM34.33 8.68L28.83 8.68L28.83 6.47L34.13 6.47L34.13 4.75L28.83 4.75L28.83 2.49L34.33 2.49L34.33 0.70L26.99 0.70C26.99 3.96 26.99 7.24 26.99 10.50L34.33 10.50ZM42.49 6.78L37.69 0.70L36.19 0.70L36.19 10.50L38.04 10.50L38.04 3.89L43.19 10.51L43.19 10.50L44.34 10.50L44.34 0.69L42.49 0.69ZM53.41 7.99C52.77 8.64 51.80 8.99 50.95 8.99C48.52 8.99 47.59 7.29 47.57 5.67C47.56 4.03 48.58 2.27 50.95 2.27C51.80 2.27 52.67 2.56 53.31 3.19L54.54 2.00C53.54 1.01 52.28 0.50 50.95 0.50C47.40 0.50 45.74 3.11 45.75 5.67C45.77 8.22 47.31 10.72 50.95 10.72C52.36 10.72 53.66 10.26 54.67 9.27ZM57.57 10.50L57.57 0.70L55.73 0.70L55.73 10.50ZM68.70 0.70L66.63 0.70L63.66 8.33L60.70 0.70L58.63 0.70L62.71 10.54L64.62 10.54Z"></path></g><!----><!----></svg>